<svg width="180" height="180" viewBox="0 0 180 180" fill="none" xmlns="http://www.w3.org/2000/svg">
<path fill-rule="evenodd" clip-rule="evenodd" d="M40.6111 5C27.5711 5 17 15.5711 17 28.6111C17 41.6512 27.571 52.2222 40.6111 52.2222H73.7271V151.717C73.7271 164.576 84.1513 175 97.0103 175C109.869 175 120.294 164.576 120.294 151.717L120.294 52.2222H153.408C166.448 52.2222 177.019 41.6512 177.019 28.6111C177.019 15.5711 166.448 5 153.408 5H40.6111Z" fill="#023535"/>
<path fill-rule="evenodd" clip-rule="evenodd" d="M27.9053 15C15.255 15 5 25.255 5 37.9053C5 50.5555 15.255 60.8105 27.9053 60.8105H60.3097V157.216C60.3097 169.754 70.4738 179.918 83.0118 179.918C95.5498 179.918 105.714 169.754 105.714 157.216V60.8105H138.12C150.77 60.8105 161.025 50.5555 161.025 37.9053C161.025 25.255 150.77 15 138.12 15H27.9053Z" fill="#0FC2C0"/>
</svg>
